<svg width="20" height="13" viewBox="0 0 20 13" xmlns="http://www.w3.org/2000/svg">
    <g fill="#978897" fill-rule="nonzero">
        <path d="M9.23 0C7.57 0 6.01.66 4.87 1.73 4.54.73 3.61 0 2.5 0a2.5 2.5 0 0 0 0 5c.21 0 .41-.03.61-.08-.05.25-.09.51-.1.78a6.006 6.006 0 0 0 6.68 6.27c2.55-.28 4.68-2.26 5.19-4.77.15-.71.15-1.4.06-2.06-.09-.6.38-1.13.99-1.13H20V0H9.23zM2.5 3c-.28 0-.5-.22-.5-.5s.22-.5.5-.5.5.22.5.5-.22.5-.5.5zM9 9C7.34 9 6 7.66 6 6s1.34-3 3-3 3 1.34 3 3-1.34 3-3 3z"/>
        <circle cx="9" cy="6" r="2"/>
    </g>
</svg>
