<svg width="14" height="17" viewBox="0 0 14 17" xmlns="http://www.w3.org/2000/svg">
    <path d="M.531 0c.294 0 .531.238.531.531V16.47a.531.531 0 1 1-1.062 0V.53C0 .238.238 0 .531 0zM4.4 0a6.79 6.79 0 0 1 2.65.792c.853.451 1.79.72 2.753.791a7.916 7.916 0 0 0 3.256-.616.531.531 0 0 1 .797.451V9.35c0 .2-.114.383-.292.473a8.92 8.92 0 0 1-3.719.728 7.884 7.884 0 0 1-3.187-.882 5.96 5.96 0 0 0-2.232-.68 4.675 4.675 0 0 0-2.257.573V.453A5.77 5.77 0 0 1 4.397 0z" fill="#5D78FF" fill-rule="nonzero"/>
</svg>
