<svg width="13" height="14" viewBox="0 0 13 14" xmlns="http://www.w3.org/2000/svg" xmlns:xlink="http://www.w3.org/1999/xlink">
    <defs>
        <path d="M11.886 9.973a8.008 8.008 0 0 0-11.634 0 .933.933 0 0 0-.252.639v2.455c0 .515.418.933.933.933H11.2a.933.933 0 0 0 .933-.933v-2.455a.933.933 0 0 0-.247-.64zm-.686 3.094H.933v-2.46a7.08 7.08 0 0 1 10.267 0v2.46zM6.067 6.533a3.267 3.267 0 1 0 0-6.533 3.267 3.267 0 0 0 0 6.533zm0-5.6a2.333 2.333 0 1 1 0 4.667 2.333 2.333 0 0 1 0-4.667z" id="a"/>
    </defs>
    <use fill="#978897" fill-rule="nonzero" xlink:href="#a"/>
</svg>
