<svg width="15" height="15" viewBox="0 0 15 15" xmlns="http://www.w3.org/2000/svg">
    <path d="M12.018 10.602c-.572 0-1.084.226-1.476.58L5.173 8.057c.038-.173.068-.346.068-.527 0-.18-.03-.354-.068-.527l5.309-3.095c.407.377.941.61 1.536.61a2.256 2.256 0 0 0 2.26-2.259A2.256 2.256 0 0 0 12.017 0 2.256 2.256 0 0 0 9.76 2.259c0 .18.03.354.068.527L4.518 5.881a2.25 2.25 0 0 0-1.536-.61 2.256 2.256 0 0 0-2.26 2.26 2.256 2.256 0 0 0 2.26 2.258 2.25 2.25 0 0 0 1.536-.61l5.362 3.133c-.038.158-.06.324-.06.49 0 1.212.986 2.198 2.198 2.198a2.201 2.201 0 0 0 2.199-2.199 2.201 2.201 0 0 0-2.199-2.199zm0-9.096c.414 0 .753.339.753.753a.755.755 0 0 1-.753.753.755.755 0 0 1-.753-.753c0-.414.339-.753.753-.753zM2.982 8.283a.755.755 0 0 1-.753-.753c0-.414.339-.753.753-.753s.753.339.753.753a.755.755 0 0 1-.753.753zm9.036 5.286a.755.755 0 0 1-.753-.753c0-.414.339-.753.753-.753s.753.34.753.753a.755.755 0 0 1-.753.753z" fill="#978897" fill-rule="nonzero"/>
</svg>
