<svg width="13" height="13" viewBox="0 0 13 13" xmlns="http://www.w3.org/2000/svg">
    <path d="M12.071 7.429H8.357a.929.929 0 0 0-.928.928v3.714c0 .513.415.929.928.929h3.714a.929.929 0 0 0 .929-.929V8.357a.929.929 0 0 0-.929-.928zM8.357 12.07V8.357h3.714v3.714H8.357zM4.643 7.43H.929A.929.929 0 0 0 0 8.357v3.714c0 .513.416.929.929.929h3.714a.929.929 0 0 0 .928-.929V8.357a.929.929 0 0 0-.928-.928zM.929 12.07V8.357h3.714v3.714H.929zM12.07 0H8.357a.929.929 0 0 0-.928.929v3.714c0 .513.415.928.928.928h3.714A.929.929 0 0 0 13 4.643V.929A.929.929 0 0 0 12.071 0zM8.357 4.643V.929h3.714v3.714H8.357zM4.643 0H.929A.929.929 0 0 0 0 .929v3.714c0 .513.416.928.929.928h3.714a.929.929 0 0 0 .928-.928V.929A.929.929 0 0 0 4.643 0zM.929 4.643V.929h3.714v3.714H.929z" fill="#978897" fill-rule="nonzero"/>
</svg>
