<svg width="17" height="11" viewBox="0 0 17 11" xmlns="http://www.w3.org/2000/svg">
    <path d="M15.562 9.659H2.683a.537.537 0 1 0 0 1.073h12.879a.537.537 0 1 0 0-1.073zM0 9.659h1.073v1.073H0V9.66zm15.562-3.22H2.683a.537.537 0 1 0 0 1.074h12.879a.537.537 0 1 0 0-1.074zM0 6.44h1.073v1.074H0V6.439zm15.562-3.22H2.683a.537.537 0 1 0 0 1.074h12.879a.537.537 0 1 0 0-1.073zM0 3.22h1.073v1.074H0V3.22zM15.562 0a.537.537 0 1 1 0 1.073H2.683a.537.537 0 1 1 0-1.073zM1.073 0v1.073H0V0h1.073z" fill="#978897" fill-rule="nonzero"/>
</svg>
