<svg width="15" height="16" viewBox="0 0 15 16" xmlns="http://www.w3.org/2000/svg" xmlns:xlink="http://www.w3.org/1999/xlink">
    <defs>
        <path d="M14.817 12.825a7.132 7.132 0 0 1-1.263-1.442 6.116 6.116 0 0 1-.679-2.368V6.584c.007-2.684-2.028-4.952-4.747-5.292V.657C8.128.294 7.827 0 7.456 0a.664.664 0 0 0-.671.657v.645c-2.694.364-4.698 2.62-4.693 5.282v2.431a6.116 6.116 0 0 1-.679 2.368 7.128 7.128 0 0 1-1.242 1.442.488.488 0 0 0-.171.37v.669c0 .271.225.492.503.492h13.982a.509.509 0 0 0 .355-.144.487.487 0 0 0 .148-.348v-.67a.488.488 0 0 0-.171-.369zm-6 2.053A1.333 1.333 0 0 1 7.519 16c-.673.01-1.25-.47-1.348-1.122zm.92-12.141a4.282 4.282 0 0 1 2.153 3.847v2.431a6.896 6.896 0 0 0 .83 2.88c.347.538.759 1.034 1.227 1.476h-12.9c.467-.442.88-.938 1.226-1.476.485-.89.769-1.873.83-2.88V6.584a4.282 4.282 0 0 1 2.153-3.847 4.478 4.478 0 0 1 4.481 0z" id="a"/>
    </defs>
    <use fill="#978897" fill-rule="nonzero" xlink:href="#a"/>
</svg>
